<svg id="レイヤー_1" data-name="レイヤー 1" xmlns="http://www.w3.org/2000/svg" viewBox="0 0 26.56 28.97"><defs><style>.cls-1{fill:#22b39d;}</style></defs><path class="cls-1" d="M309.14,412.23v21H290.58v-21h18.56m0-2H290.58a2,2,0,0,0-2,2v21a2,2,0,0,0,2,2h18.56a2,2,0,0,0,2-2v-21a2,2,0,0,0-2-2Z" transform="translate(-284.58 -406.23)"/><path class="cls-1" d="M285.58,407.23h2a2,2,0,0,0-2,2Z" transform="translate(-284.58 -406.23)"/><path class="cls-1" d="M305.58,406.23h-20a1,1,0,0,0-1,1v23a1,1,0,0,0,2,0v-21a1,1,0,0,1,1-1h18a1,1,0,0,0,0-2Z" transform="translate(-284.58 -406.23)"/></svg>