<svg id="レイヤー_1" data-name="レイヤー 1" xmlns="http://www.w3.org/2000/svg" viewBox="0 0 28 28.46"><defs><style>.cls-1{fill:#22b39d;}</style></defs><path class="cls-1" d="M293.61,426.18a.5.5,0,0,1-.5-.5v-9.49h-4.79a.49.49,0,0,1-.47-.33.49.49,0,0,1,.14-.55l9.54-8.17a.5.5,0,0,1,.33-.12.47.47,0,0,1,.32.12l9.54,8.17a.5.5,0,0,1-.32.88h-5.29v9.49a.5.5,0,0,1-.5.5Z" transform="translate(-283.86 -406.52)"/><path class="cls-1" d="M297.86,407.52h0l9.54,8.17h-5.79v10h-8v-10h-5.29l9.54-8.17h0m0-1a1,1,0,0,0-.65.24l-9.54,8.17a1,1,0,0,0,.65,1.76h4.29v9a1,1,0,0,0,1,1h8a1,1,0,0,0,1-1v-9h4.79a1,1,0,0,0,.65-1.76l-9.54-8.17a1,1,0,0,0-.65-.24Z" transform="translate(-283.86 -406.52)"/><path class="cls-1" d="M284.86,434V422h.46v9.69a2,2,0,0,0,2,2H308.4a2,2,0,0,0,2-2V422h.46v12Z" transform="translate(-283.86 -406.52)"/><path class="cls-1" d="M310.86,421h-.46a1,1,0,0,0-1,1v9.7a1,1,0,0,1-1,1H287.32a1,1,0,0,1-1-1V422a1,1,0,0,0-1-1h-.46a1,1,0,0,0-1,1v12a1,1,0,0,0,1,1h26a1,1,0,0,0,1-1V422a1,1,0,0,0-1-1Z" transform="translate(-283.86 -406.52)"/></svg>