<svg id="レイヤー_1" data-name="レイヤー 1" xmlns="http://www.w3.org/2000/svg" viewBox="0 0 28 28.46"><defs><style>.cls-1{fill:#22b39d;}</style></defs><path class="cls-1" d="M297.86,426.18a.5.5,0,0,1-.33-.12L288,417.9a.49.49,0,0,1-.14-.55.49.49,0,0,1,.47-.33h4.79v-9.5a.51.51,0,0,1,.5-.5h8a.5.5,0,0,1,.5.5V417h5.29a.5.5,0,0,1,.32.88l-9.54,8.16A.47.47,0,0,1,297.86,426.18Z" transform="translate(-283.86 -406.52)"/><path class="cls-1" d="M301.61,407.52v10h5.79l-9.54,8.17-9.54-8.17h5.29v-10h8m0-1h-8a1,1,0,0,0-1,1v9h-4.29a1,1,0,0,0-.65,1.76l9.54,8.16a1,1,0,0,0,.65.25,1,1,0,0,0,.65-.25l9.54-8.16a1,1,0,0,0-.65-1.76h-4.79v-9a1,1,0,0,0-1-1Z" transform="translate(-283.86 -406.52)"/><path class="cls-1" d="M284.86,434V422h.46v9.69a2,2,0,0,0,2,2H308.4a2,2,0,0,0,2-2V422h.46v12Z" transform="translate(-283.86 -406.52)"/><path class="cls-1" d="M310.86,421h-.46a1,1,0,0,0-1,1v9.7a1,1,0,0,1-1,1H287.32a1,1,0,0,1-1-1V422a1,1,0,0,0-1-1h-.46a1,1,0,0,0-1,1v12a1,1,0,0,0,1,1h26a1,1,0,0,0,1-1V422a1,1,0,0,0-1-1Z" transform="translate(-283.86 -406.52)"/></svg>